# xmcd CD database file generated by OrangeCD 6.4
#
# Track frame offsets:
#	150
#	24885
#	36935
#	72027
#	91115
#	106305
#	125635
#	152540
#	171725
#	198340
#	209030
#	225080
#	251745
#	272180
#
# Disc length: 3996 seconds
#
# Revision: 1
# Processed by: cddbd v1.5.2PL0 Copyright (c) Steve Scherf et al.
# Submitted via: OrangeCD 6.4
#
DISCID=bd0f9a0e
DTITLE=Long John Baldry - Evening Conversation
DYEAR=2000
DGENRE=blues
TTITLE0=Good Morning Blues
TTITLE1=Who Back Buck
TTITLE2=Back Water Blues
TTITLE3=Morning Dew
TTITLE4=Black Girl
TTITLE5=It Ain't Easy
TTITLE6=Burn Down The Cornfield
TTITLE7=Moon Dance In Tajikistan
TTITLE8=Walk On
TTITLE9=Can't Keep From Crying Sometimes
TTITLE10=Maggie Bell
TTITLE11=Blue Valentine
TTITLE12=Midnight In New Orleans
TTITLE13=Flying
EXTD=2000, Hypertension Music, Hamburg
EXTT0=
EXTT1=
EXTT2=
EXTT3=
EXTT4=
EXTT5=
EXTT6=
EXTT7=
EXTT8=
EXTT9=
EXTT10=
EXTT11=
EXTT12=
EXTT13=
PLAYORDER=
